<svg xmlns="http://www.w3.org/2000/svg" viewBox="0 0 256 256" width="256" height="256">
  <defs>
    <linearGradient id="bg3" x1="0" y1="0" x2="1" y2="1">
      <stop offset="0%" stop-color="#FFFEFB"/>
      <stop offset="100%" stop-color="#FFF2D5"/>
    </linearGradient>
  </defs>

  <rect x="14" y="14" width="228" height="228" rx="54" ry="54" fill="url(#bg3)"/>
  <rect x="16" y="16" width="224" height="224" rx="52" ry="52" fill="none" stroke="#EBD9B5" stroke-width="1.5"/>

  <g transform="translate(128, 130)">

    <path d="M -58,-62 L -40,-62 L -40,52 L -58,52 Z" fill="#041E36"/>
    <path d="M 40,-62 L 58,-62 L 58,52 L 40,52 Z" fill="#041E36"/>
    <path d="M -40,-62 L -5,28 L -5,52 L -23,52 L -46,-28 L -46,-62 Z" fill="#1C74C8"/>
    <path d="M 40,-62 L 46,-62 L 46,-28 L 23,52 L 5,52 L 5,28 Z" fill="#38A0F0"/>

    <rect x="-78" y="-70" width="156" height="4" rx="2" fill="#D08820"/>
    <rect x="-78" y="56" width="156" height="4" rx="2" fill="#D08820"/>

    <!-- Italic # -->
    <g transform="translate(0, -3) skewX(-12)" fill="#D08820">
      <rect x="-5" y="-8" width="2.8" height="13" rx="1.4"/>
      <rect x="2.2" y="-8" width="2.8" height="13" rx="1.4"/>
      <rect x="-5" y="-3" width="10" height="2.8" rx="1.4"/>
      <rect x="-5" y="1.5" width="10" height="2.8" rx="1.4"/>
    </g>

  </g>
</svg>
