<svg xmlns="http://www.w3.org/2000/svg" viewBox="0 0 256 256" width="256" height="256">
  <defs>
    <linearGradient id="bg1" x1="0" y1="0" x2="1" y2="1">
      <stop offset="0%" stop-color="#FFFDF7"/>
      <stop offset="100%" stop-color="#FFF4D5"/>
    </linearGradient>
  </defs>

  <rect x="14" y="14" width="228" height="228" rx="54" ry="54" fill="url(#bg1)"/>
  <rect x="16" y="16" width="224" height="224" rx="52" ry="52" fill="none" stroke="#E8D5B0" stroke-width="1.5"/>

  <g transform="translate(128, 132)">

    <path d="M -58,-60 L -40,-60 L -40,50 L -58,50 Z" fill="#0B2D4F"/>
    <path d="M 40,-60 L 58,-60 L 58,50 L 40,50 Z" fill="#0B2D4F"/>
    <path d="M -40,-60 L -6,26 L -6,50 L -22,50 L -46,-26 L -46,-60 Z" fill="#1A6AB5"/>
    <path d="M 40,-60 L 46,-60 L 46,-26 L 22,50 L 6,50 L 6,26 Z" fill="#2E90E0"/>

    <rect x="-76" y="-68" width="152" height="4" rx="2" fill="#D4922A"/>
    <rect x="-76" y="54" width="152" height="4" rx="2" fill="#D4922A"/>

    <!-- Italic # — slanted -->
    <g transform="translate(0, -2) skewX(-10)" fill="#D4922A">
      <rect x="-5.5" y="-8.5" width="3" height="14" rx="1.5"/>
      <rect x="2.5" y="-8.5" width="3" height="14" rx="1.5"/>
      <rect x="-5.5" y="-3" width="11" height="3" rx="1.5"/>
      <rect x="-5.5" y="1.5" width="11" height="3" rx="1.5"/>
    </g>

  </g>
</svg>
