<svg xmlns="http://www.w3.org/2000/svg" viewBox="0 0 256 256" width="256" height="256">
  <defs>
    <linearGradient id="bg2" x1="0" y1="0" x2="1" y2="1">
      <stop offset="0%" stop-color="#FFFEFA"/>
      <stop offset="100%" stop-color="#FFF3D8"/>
    </linearGradient>
  </defs>

  <rect x="14" y="14" width="228" height="228" rx="54" ry="54" fill="url(#bg2)"/>
  <rect x="16" y="16" width="224" height="224" rx="52" ry="52" fill="none" stroke="#EAD7B2" stroke-width="1.5"/>

  <g transform="translate(128, 131)">

    <!-- Left stem -->
    <path d="M -58,-60 L -40,-60 L -40,50 L -58,50 Z" fill="#072444"/>
    <!-- Right stem -->
    <path d="M 40,-60 L 58,-60 L 58,50 L 40,50 Z" fill="#072444"/>
    <!-- Left V -->
    <path d="M -40,-60 L -6,26 L -6,50 L -22,50 L -46,-26 L -46,-60 Z" fill="#1B6EC0"/>
    <!-- Right V -->
    <path d="M 40,-60 L 46,-60 L 46,-26 L 22,50 L 6,50 L 6,26 Z" fill="#339AE8"/>

    <!-- Top gold line -->
    <rect x="-76" y="-68" width="152" height="4" rx="2" fill="#D4881E"/>
    <!-- Bottom gold line -->
    <rect x="-76" y="54" width="152" height="4" rx="2" fill="#D4881E"/>

    <!-- # drawn with paths — slanted via italic geometry, compact -->
    <g fill="#C07818">
      <!-- Left vertical — angled -->
      <path d="M -4.5,-10 L -2,-8 L 1,6 L -1.5,4 Z"/>
      <!-- Right vertical — angled -->
      <path d="M 1.5,-10 L 4,-8 L 7,6 L 4.5,4 Z"/>
      <!-- Top horizontal — angled -->
      <path d="M -5.5,-5.5 L 7.5,-3 L 6.5,-0.5 L -6.5,-3 Z"/>
      <!-- Bottom horizontal — angled -->
      <path d="M -5,-0.5 L 8,2 L 7,4.5 L -6,2 Z"/>
    </g>

  </g>
</svg>
