<svg xmlns="http://www.w3.org/2000/svg" viewBox="0 0 256 256" width="256" height="256">
  <defs>
    <linearGradient id="bg2" x1="0" y1="0" x2="1" y2="1">
      <stop offset="0%" stop-color="#FFFEFA"/>
      <stop offset="100%" stop-color="#FFF3D8"/>
    </linearGradient>
  </defs>

  <rect x="14" y="14" width="228" height="228" rx="54" ry="54" fill="url(#bg2)"/>
  <rect x="16" y="16" width="224" height="224" rx="52" ry="52" fill="none" stroke="#EAD7B2" stroke-width="1.5"/>

  <g transform="translate(128, 131)">

    <path d="M -58,-60 L -40,-60 L -40,50 L -58,50 Z" fill="#072444"/>
    <path d="M 40,-60 L 58,-60 L 58,50 L 40,50 Z" fill="#072444"/>
    <path d="M -40,-60 L -6,26 L -6,50 L -22,50 L -46,-26 L -46,-60 Z" fill="#1B6EC0"/>
    <path d="M 40,-60 L 46,-60 L 46,-26 L 22,50 L 6,50 L 6,26 Z" fill="#339AE8"/>

    <!-- Gold lines -->
    <rect x="-76" y="-68" width="152" height="4" rx="2" fill="#D4881E"/>
    <rect x="-76" y="54" width="152" height="4" rx="2" fill="#D4881E"/>

    <!-- Center # — deep blue, larger, more prominent -->
    <g fill="#04162A">
      <rect x="-6" y="-12" width="3.5" height="16" rx="1.75"/>
      <rect x="2.5" y="-12" width="3.5" height="16" rx="1.75"/>
      <rect x="-6" y="-6.5" width="12" height="3.5" rx="1.75"/>
      <rect x="-6" y="0" width="12" height="3.5" rx="1.75"/>
    </g>

  </g>
</svg>
